<svg xmlns="http://www.w3.org/2000/svg" viewBox="0 0 657.99 106"><defs><style>.cls-1{fill:#009245;}.cls-2{fill:#fff;}.cls-3{fill:#f7931e;}</style></defs><g id="Layer_2" data-name="Layer 2"><g id="Layer_1-2" data-name="Layer 1"><rect class="cls-1" width="104" height="105" rx="16.57"/><path class="cls-2" d="M40.9,89.87,25.72,90V20H50.37a43.76,43.76,0,0,1,17.1,3,24.81,24.81,0,0,1,11,8.63,23.68,23.68,0,0,1,3.9,13.83,25.3,25.3,0,0,1-3.8,14.2,23.82,23.82,0,0,1-10.76,8.79,41.74,41.74,0,0,1-16.64,3H37.37l2-14H50.78a25,25,0,0,0,8.63-1.3,11.29,11.29,0,0,0,5.46-3.95,11.08,11.08,0,0,0,1.93-6.71,10.27,10.27,0,0,0-1.93-6.39,11.32,11.32,0,0,0-5.51-3.8A26.24,26.24,0,0,0,50.78,34H40.9Z"/><rect class="cls-3" x="370" y="1" width="104" height="105" rx="16.57"/><path class="cls-2" d="M418.18,92.33a34.39,34.39,0,0,1-16.59-3.9A23.37,23.37,0,0,1,391,77l12.69-6.34a11.74,11.74,0,0,0,5.35,5.72,19.07,19.07,0,0,0,9.1,2,17.91,17.91,0,0,0,5.88-.88,9.91,9.91,0,0,0,4.11-2.6,6,6,0,0,0,1.56-4.21,5.66,5.66,0,0,0-1.67-4.42A10.46,10.46,0,0,0,423.48,64q-2.91-.72-6.55-1.35c-2.63-.48-5.39-1.13-8.26-1.92a32.34,32.34,0,0,1-8.12-3.49,17.26,17.26,0,0,1-6.08-6.19,18.9,18.9,0,0,1-2.29-9.72,19.08,19.08,0,0,1,3.33-11.08,23.28,23.28,0,0,1,9.15-7.69,29.05,29.05,0,0,1,13-2.86,31.58,31.58,0,0,1,15.7,3.9A23.68,23.68,0,0,1,443.66,35L431,41.37a12.87,12.87,0,0,0-5.15-5.51A16.86,16.86,0,0,0,417,33.78a14.13,14.13,0,0,0-5,.83A7.91,7.91,0,0,0,408.61,37a5.83,5.83,0,0,0-1.25,3.75,5.69,5.69,0,0,0,1.77,4.42A11.54,11.54,0,0,0,414,47.61c2,.56,4.32,1.08,6.81,1.56q4,.73,8.16,1.92a29.41,29.41,0,0,1,7.81,3.49,18.07,18.07,0,0,1,5.87,6.13,19.09,19.09,0,0,1,2.29,9.88,18.56,18.56,0,0,1-3.59,11.18,24.2,24.2,0,0,1-9.62,7.75A31.69,31.69,0,0,1,418.18,92.33Z"/><path class="cls-1" d="M130,30.44a9.28,9.28,0,0,1-4.63-1.19A8.6,8.6,0,0,1,122,25.92a9.36,9.36,0,0,1-1.19-4.63A9.13,9.13,0,0,1,130,12.14a8.78,8.78,0,0,1,4.58,1.25,9.16,9.16,0,0,1,3.27,3.33,9,9,0,0,1,1.2,4.57,9.27,9.27,0,0,1-1.2,4.63,8.72,8.72,0,0,1-3.27,3.33A9,9,0,0,1,130,30.44Zm-7.38,7.7h14.76V89.62H122.61Z"/><path class="cls-1" d="M176.89,91a27.75,27.75,0,0,1-19.65-8,26.81,26.81,0,0,1-5.88-8.69,27.09,27.09,0,0,1,0-21.06,27.54,27.54,0,0,1,5.88-8.68A27.2,27.2,0,0,1,166,38.71a26.61,26.61,0,0,1,10.87-2,29.21,29.21,0,0,1,13.84,3.59,23.47,23.47,0,0,1,9.87,11L188.44,57.9a13.81,13.81,0,0,0-4.73-5.36,13,13,0,0,0-13.37-.15A13,13,0,0,0,164,63.83a13,13,0,0,0,1.71,6.55,13.6,13.6,0,0,0,4.63,4.84A12.14,12.14,0,0,0,176.89,77a12,12,0,0,0,6.82-2,14.37,14.37,0,0,0,4.73-5.3l12.16,6.65a23.42,23.42,0,0,1-9.87,11A29.09,29.09,0,0,1,176.89,91Z"/><path class="cls-1" d="M226.29,89.62H211.52V14.43h14.77ZM223.9,69.13v-11h12v11Zm40.87,20.49H247.2L233,72.15a13.51,13.51,0,0,1-3.12-8.53,12.71,12.71,0,0,1,3.22-8.32L247.3,38.14h17.58L243,64.14a.41.41,0,0,1,.05-.21.8.8,0,0,0,0-.31,2.24,2.24,0,0,0-.1-.42Z"/><path class="cls-3" d="M328.83,51a11.12,11.12,0,0,0-6.86,2,11.7,11.7,0,0,0-4,5.31,20.49,20.49,0,0,0-1.25,7.33V89.62H302V63.93a31.16,31.16,0,0,1,3-13.67,23.23,23.23,0,0,1,8.89-9.88q5.92-3.69,15-3.7t15,3.7a23.57,23.57,0,0,1,9,9.82,30.75,30.75,0,0,1,3,13.73V89.62H341.11V65.7a19.21,19.21,0,0,0-1.36-7.28,12.53,12.53,0,0,0-4-5.36A11.09,11.09,0,0,0,328.83,51Z"/><path class="cls-3" d="M508.44,91a23.83,23.83,0,0,1-13.21-3.69,26,26,0,0,1-9-9.88A28.68,28.68,0,0,1,483,63.72a26,26,0,0,1,3.69-13.57,27.83,27.83,0,0,1,10-9.88,27.5,27.5,0,0,1,14.19-3.69,28.65,28.65,0,0,1,14.35,3.59,26.23,26.23,0,0,1,13.63,23.55v25.9h-14V71l4.47-1.24a22.58,22.58,0,0,1-2.6,10.86,19.39,19.39,0,0,1-7.18,7.6A21,21,0,0,1,508.44,91Zm2.39-13.83a12.75,12.75,0,0,0,6.81-1.82,13.47,13.47,0,0,0,0-23,12.66,12.66,0,0,0-6.81-1.82,12.53,12.53,0,0,0-6.71,1.82,13.27,13.27,0,0,0-6.39,11.49,13.3,13.3,0,0,0,6.39,11.49A12.62,12.62,0,0,0,510.83,77.14Z"/><path class="cls-3" d="M559.61,81.09,543.9,38.14h15.71l13.62,38.79q-.21-.11-.21,0c.07,0,.11,0,.11-.05s-.07,0-.21.05l13.62-38.79h15.71l-15.92,43a16,16,0,0,1-5.2,7.49,13.14,13.14,0,0,1-8.11,2.5,13.66,13.66,0,0,1-8.16-2.5A15,15,0,0,1,559.61,81.09Z"/><path class="cls-3" d="M633.55,91a29.61,29.61,0,0,1-14.4-3.48,25.66,25.66,0,0,1-10-9.67,27.88,27.88,0,0,1-3.64-14.41,27.9,27.9,0,0,1,3.38-13.57A25.79,25.79,0,0,1,632.2,36.27a25.67,25.67,0,0,1,13.94,3.59,24.12,24.12,0,0,1,8.78,9.51,27.81,27.81,0,0,1,3.07,13v4.37H617.22l2.29-3.64A15.55,15.55,0,0,0,621,70.9a12.81,12.81,0,0,0,4.89,5.36,14.28,14.28,0,0,0,7.54,1.92,14.67,14.67,0,0,0,7.54-2,12.93,12.93,0,0,0,5.15-5.51l11.33,5.72A24.86,24.86,0,0,1,648,87.18,27,27,0,0,1,633.55,91ZM620.34,58.52h23a10.33,10.33,0,0,0-1.82-4.83,10.49,10.49,0,0,0-3.9-3.33,12.14,12.14,0,0,0-5.51-1.2,12.33,12.33,0,0,0-5.67,1.25,10.66,10.66,0,0,0-3.95,3.38A13.63,13.63,0,0,0,620.34,58.52Z"/></g></g></svg>